<svg xmlns="http://www.w3.org/2000/svg" viewBox="0 0 760 382" width="760" height="382" role="img" aria-label="Tilt from upright. Deterministic evaluation rollouts. The link starts hanging at 180 degrees; the task is to reach and hold 0.">
<style>.r { --surface: #fcfcfb; --ink: #0b0b0b; --ink2: #52514e; --muted: #898781; --grid: #e1e0d9; --axis: #c3c2b7; --s1: #2a78d6; --s2: #eb6834; --s3: #1baf7a; }@media (prefers-color-scheme: dark) { .r { --surface: #1a1a19; --ink: #ffffff; --ink2: #c3c2b7; --muted: #898781; --grid: #2c2c2a; --axis: #383835; --s1: #3987e5; --s2: #d95926; --s3: #199e70; } }.bg { fill: var(--surface); }.grid { stroke: var(--grid); stroke-width: 1; }.axis { stroke: var(--axis); stroke-width: 1; }.rule { stroke: var(--muted); stroke-width: 1; stroke-dasharray: 3 4; }.rule-label { fill: var(--muted); font-size: 10.5px; text-anchor: start; }.tick { fill: var(--muted); font-size: 11px; }.ty { text-anchor: end; } .tx { text-anchor: middle; }.axis-title { fill: var(--muted); font-size: 11.5px; text-anchor: middle; }.line { fill: none; stroke-width: 2; stroke-linejoin: round; stroke-linecap: round; }.line.dashed { stroke-dasharray: 5 4; }.dot { stroke: var(--surface); stroke-width: 2; }.direct { font-size: 11.5px; font-weight: 600; }.s1 { stroke: var(--s1); } .s2 { stroke: var(--s2); } .s3 { stroke: var(--s3); }circle.s1 { fill: var(--s1); } circle.s2 { fill: var(--s2); } circle.s3 { fill: var(--s3); }text.s1 { fill: var(--s1); stroke: none; }text.s2 { fill: var(--s2); stroke: none; }text.s3 { fill: var(--s3); stroke: none; }rect.s1 { fill: var(--s1); } rect.s2 { fill: var(--s2); } rect.s3 { fill: var(--s3); }.t { fill: var(--ink); font-size: 15px; font-weight: 620; }.st { fill: var(--ink2); font-size: 11.5px; }.lg { fill: var(--ink2); font-size: 11.5px; }svg { font-family: system-ui, -apple-system, 'Segoe UI', sans-serif; }</style>
<g class="r"><rect class="bg" x="0" y="0" width="760" height="382" rx="10"/>
<text class="t" x="26" y="26">Tilt from upright</text>
<text class="st" x="26" y="44">Deterministic evaluation rollouts. The link starts hanging at 180 degrees; the task is to reach and hold 0.</text>
<line class="grid" x1="66" y1="312.0" x2="652" y2="312.0"/>
<text class="tick ty" x="56" y="316.0">0</text>
<line class="grid" x1="66" y1="251.0" x2="652" y2="251.0"/>
<text class="tick ty" x="56" y="255.0">50</text>
<line class="grid" x1="66" y1="190.0" x2="652" y2="190.0"/>
<text class="tick ty" x="56" y="194.0">100</text>
<line class="grid" x1="66" y1="129.0" x2="652" y2="129.0"/>
<text class="tick ty" x="56" y="133.0">150</text>
<line class="grid" x1="66" y1="68.0" x2="652" y2="68.0"/>
<text class="tick ty" x="56" y="72.0">200</text>
<text class="tick tx" x="66.0" y="334">0</text>
<text class="tick tx" x="212.5" y="334">2</text>
<text class="tick tx" x="359.0" y="334">4</text>
<text class="tick tx" x="505.5" y="334">6</text>
<text class="tick tx" x="652.0" y="334">8</text>
<line class="axis" x1="66" y1="312" x2="652" y2="312"/>
<line class="rule" x1="66" y1="293.7" x2="652" y2="293.7"/>
<text class="rule-label" x="72" y="287.7">15 deg cone</text>
<polyline class="line s1" points="66.0,95.0 66.7,95.0 67.5,95.1 68.2,95.1 68.9,95.1 69.7,95.1 70.4,95.2 71.1,95.3 71.9,95.3 72.6,95.4 73.3,95.5 74.1,95.6 74.8,95.6 75.5,95.7 76.3,95.8 77.0,96.0 77.7,96.1 78.5,96.2 79.2,96.3 79.9,96.4 80.7,96.5 81.4,96.6 82.1,96.7 82.8,96.9 83.6,97.0 84.3,97.1 85.0,97.2 85.8,97.3 86.5,97.4 87.2,97.4 88.0,97.5 88.7,97.6 89.4,97.6 90.2,97.7 90.9,97.7 91.6,97.7 92.4,97.7 93.1,97.7 93.8,97.7 94.6,97.7 95.3,97.6 96.0,97.6 96.8,97.5 97.5,97.4 98.2,97.4 99.0,97.2 99.7,97.1 100.4,97.0 101.2,96.9 101.9,96.7 102.6,96.6 103.4,96.4 104.1,96.2 104.8,96.0 105.6,95.8 106.3,95.6 107.0,95.4 107.8,95.2 108.5,95.0 109.2,94.8 109.9,94.5 110.7,94.3 111.4,94.1 112.1,93.9 112.9,93.7 113.6,93.5 114.3,93.3 115.1,93.1 115.8,92.9 116.5,92.8 117.3,92.6 118.0,92.4 118.7,92.5 119.5,92.6 120.2,92.7 120.9,92.8 121.7,92.9 122.4,93.0 123.1,93.0 123.9,93.0 124.6,93.1 125.3,93.0 126.1,93.0 126.8,93.0 127.5,92.9 128.3,92.9 129.0,92.8 129.7,92.7 130.5,92.6 131.2,92.4 131.9,92.5 132.7,92.7 133.4,92.8 134.1,93.0 134.9,93.2 135.6,93.4 136.3,93.6 137.1,93.8 137.8,94.0 138.5,94.2 139.2,94.5 140.0,94.7 140.7,94.9 141.4,95.1 142.2,95.3 142.9,95.5 143.6,95.7 144.4,95.8 145.1,96.0 145.8,96.1 146.6,96.3 147.3,96.4 148.0,96.5 148.8,96.6 149.5,96.6 150.2,96.7 151.0,96.7 151.7,96.7 152.4,96.7 153.2,96.6 153.9,96.5 154.6,96.4 155.4,96.3 156.1,96.2 156.8,96.0 157.6,95.8 158.3,95.6 159.0,95.4 159.8,95.1 160.5,94.9 161.2,94.6 162.0,94.3 162.7,94.0 163.4,93.6 164.2,93.3 164.9,92.9 165.6,92.6 166.4,92.6 167.1,93.0 167.8,93.3 168.6,93.7 169.3,94.1 170.0,94.5 170.7,94.8 171.5,95.2 172.2,95.5 172.9,95.9 173.7,96.2 174.4,96.5 175.1,96.8 175.9,97.0 176.6,97.3 177.3,97.5 178.1,97.7 178.8,97.8 179.5,98.0 180.3,98.1 181.0,98.1 181.7,98.2 182.5,98.2 183.2,98.2 183.9,98.1 184.7,98.1 185.4,98.0 186.1,97.8 186.9,97.6 187.6,97.4 188.3,97.2 189.1,96.9 189.8,96.7 190.5,96.4 191.3,96.0 192.0,95.7 192.7,95.3 193.5,94.9 194.2,94.5 194.9,94.1 195.7,93.7 196.4,93.2 197.1,92.8 197.8,92.4 198.6,92.9 199.3,93.3 200.0,93.7 200.8,94.1 201.5,94.5 202.2,94.9 203.0,95.2 203.7,95.6 204.4,95.9 205.2,96.2 205.9,96.4 206.6,96.6 207.4,96.8 208.1,97.0 208.8,97.1 209.6,97.2 210.3,97.2 211.0,97.2 211.8,97.2 212.5,97.1 213.2,96.9 214.0,96.8 214.7,96.5 215.4,96.3 216.2,96.0 216.9,95.7 217.6,95.3 218.4,94.9 219.1,94.4 219.8,93.9 220.6,93.4 221.3,92.9 222.0,92.5 222.8,93.1 223.5,93.7 224.2,94.3 225.0,94.9 225.7,95.5 226.4,96.2 227.2,96.8 227.9,97.4 228.6,98.1 229.3,98.7 230.1,99.3 230.8,99.9 231.5,100.4 232.3,100.9 233.0,101.4 233.7,101.9 234.5,102.3 235.2,102.7 235.9,103.1 236.7,103.4 237.4,103.6 238.1,103.8 238.9,103.9 239.6,104.0 240.3,104.1 241.1,104.1 241.8,104.0 242.5,103.8 243.3,103.7 244.0,103.4 244.7,103.1 245.5,102.7 246.2,102.3 246.9,101.9 247.7,101.4 248.4,100.8 249.1,100.2 249.9,99.5 250.6,98.9 251.3,98.1 252.1,97.4 252.8,96.6 253.5,95.8 254.3,95.0 255.0,94.2 255.7,93.4 256.5,92.5 257.2,93.1 257.9,93.9 258.6,94.7 259.4,95.5 260.1,96.3 260.8,97.0 261.6,97.7 262.3,98.4 263.0,99.0 263.8,99.5 264.5,100.1 265.2,100.5 266.0,100.9 266.7,101.2 267.4,101.5 268.2,101.7 268.9,101.8 269.6,101.8 270.4,101.8 271.1,101.7 271.8,101.5 272.6,101.3 273.3,100.9 274.0,100.5 274.8,100.0 275.5,99.5 276.2,98.8 277.0,98.1 277.7,97.4 278.4,96.6 279.2,95.7 279.9,94.8 280.6,93.8 281.4,92.8 282.1,93.1 282.8,94.1 283.6,95.2 284.3,96.3 285.0,97.4 285.8,98.5 286.5,99.7 287.2,100.7 287.9,101.8 288.7,102.9 289.4,103.9 290.1,104.9 290.9,105.8 291.6,106.7 292.3,107.5 293.1,108.2 293.8,108.9 294.5,109.5 295.3,110.0 296.0,110.5 296.7,110.8 297.5,111.1 298.2,111.2 298.9,111.3 299.7,111.2 300.4,111.1 301.1,110.9 301.9,110.5 302.6,110.1 303.3,109.5 304.1,108.9 304.8,108.1 305.5,107.3 306.3,106.4 307.0,105.4 307.7,104.3 308.5,103.1 309.2,101.9 309.9,100.6 310.7,99.2 311.4,97.8 312.1,96.4 312.9,94.9 313.6,93.4 314.3,92.9 315.0,94.4 315.8,96.0 316.5,97.5 317.2,99.0 318.0,100.4 318.7,101.8 319.4,103.2 320.2,104.5 320.9,105.7 321.6,106.9 322.4,108.0 323.1,108.9 323.8,109.8 324.6,110.6 325.3,111.2 326.0,111.7 326.8,112.1 327.5,112.4 328.2,112.6 329.0,112.6 329.7,112.4 330.4,112.2 331.2,111.8 331.9,111.2 332.6,110.6 333.4,109.7 334.1,108.8 334.8,107.7 335.6,106.5 336.3,105.2 337.0,103.8 337.8,102.3 338.5,100.7 339.2,99.0 340.0,97.2 340.7,95.4 341.4,93.5 342.2,93.3 342.9,95.2 343.6,97.2 344.3,99.2 345.1,101.2 345.8,103.2 346.5,105.1 347.3,107.0 348.0,108.9 348.7,110.7 349.5,112.4 350.2,114.0 350.9,115.5 351.7,116.9 352.4,118.1 353.1,119.3 353.9,120.3 354.6,121.2 355.3,121.9 356.1,122.4 356.8,122.8 357.5,123.0 358.3,123.0 359.0,122.9 359.7,122.6 360.5,122.1 361.2,121.4 361.9,120.5 362.7,119.5 363.4,118.3 364.1,116.9 364.9,115.4 365.6,113.7 366.3,111.8 367.1,109.9 367.8,107.7 368.5,105.5 369.3,103.1 370.0,100.7 370.7,98.1 371.5,95.5 372.2,92.8 372.9,94.7 373.7,97.4 374.4,100.2 375.1,102.9 375.8,105.6 376.6,108.3 377.3,110.9 378.0,113.4 378.8,115.8 379.5,118.2 380.2,120.4 381.0,122.4 381.7,124.3 382.4,126.0 383.2,127.5 383.9,128.9 384.6,130.0 385.4,130.9 386.1,131.6 386.8,132.1 387.6,132.3 388.3,132.3 389.0,132.1 389.8,131.6 390.5,130.9 391.2,129.9 392.0,128.7 392.7,127.2 393.4,125.5 394.2,123.6 394.9,121.5 395.6,119.2 396.4,116.7 397.1,114.0 397.8,111.1 398.6,108.0 399.3,104.9 400.0,101.6 400.8,98.2 401.5,94.7 402.2,93.7 402.9,97.3 403.7,100.9 404.4,104.5 405.1,108.0 405.9,111.6 406.6,115.0 407.3,118.4 408.1,121.6 408.8,124.7 409.5,127.7 410.3,130.5 411.0,133.1 411.7,135.5 412.5,137.6 413.2,139.6 413.9,141.2 414.7,142.7 415.4,143.8 416.1,144.7 416.9,145.4 417.6,145.7 418.3,145.7 419.1,145.5 419.8,144.9 420.5,144.0 421.3,142.9 422.0,141.4 422.7,139.7 423.5,137.7 424.2,135.3 424.9,132.7 425.7,129.8 426.4,126.7 427.1,123.3 427.9,119.7 428.6,115.8 429.3,111.7 430.1,107.5 430.8,103.1 431.5,98.5 432.2,93.8 433.0,95.8 433.7,100.6 434.4,105.5 435.2,110.3 435.9,115.2 436.6,120.0 437.4,124.6 438.1,129.2 438.8,133.6 439.6,137.8 440.3,141.9 441.0,145.6 441.8,149.2 442.5,152.4 443.2,155.3 444.0,158.0 444.7,160.3 445.4,162.2 446.2,163.9 446.9,165.1 447.6,166.0 448.4,166.6 449.1,166.7 449.8,166.5 450.6,165.9 451.3,164.9 452.0,163.5 452.8,161.8 453.5,159.7 454.2,157.2 455.0,154.3 455.7,151.1 456.4,147.5 457.2,143.6 457.9,139.3 458.6,134.8 459.4,129.9 460.1,124.7 460.8,119.3 461.6,113.7 462.3,107.9 463.0,101.9 463.7,95.8 464.5,95.2 465.2,101.5 465.9,107.8 466.7,114.0 467.4,120.2 468.1,126.3 468.9,132.3 469.6,138.1 470.3,143.7 471.1,149.1 471.8,154.2 472.5,159.0 473.3,163.5 474.0,167.7 474.7,171.5 475.5,175.0 476.2,178.2 476.9,180.9 477.7,183.3 478.4,185.2 479.1,186.8 479.9,188.0 480.6,188.8 481.3,189.1 482.1,189.1 482.8,188.7 483.5,187.8 484.3,186.6 485.0,184.9 485.7,182.8 486.5,180.3 487.2,177.5 487.9,174.2 488.7,170.5 489.4,166.4 490.1,161.9 490.8,157.0 491.6,151.7 492.3,146.0 493.0,140.0 493.8,133.6 494.5,126.9 495.2,119.9 496.0,112.6 496.7,105.0 497.4,97.3 498.2,95.5 498.9,103.5 499.6,111.6 500.4,119.8 501.1,127.8 501.8,135.8 502.6,143.7 503.3,151.3 504.0,158.7 504.8,165.9 505.5,172.7 506.2,179.1 507.0,185.2 507.7,190.9 508.4,196.2 509.2,201.1 509.9,205.6 510.6,209.7 511.4,213.4 512.1,216.6 512.8,219.5 513.6,222.0 514.3,224.0 515.0,225.8 515.8,227.1 516.5,228.1 517.2,228.7 518.0,228.9 518.7,228.8 519.4,228.3 520.2,227.5 520.9,226.4 521.6,224.8 522.3,223.0 523.1,220.7 523.8,218.1 524.5,215.1 525.3,211.7 526.0,207.9 526.7,203.8 527.5,199.2 528.2,194.2 528.9,188.8 529.7,182.9 530.4,176.7 531.1,170.0 531.9,162.8 532.6,155.3 533.3,147.4 534.1,139.1 534.8,130.4 535.5,121.5 536.3,112.3 537.0,102.9 537.7,93.3 538.5,101.2 539.2,111.0 539.9,120.7 540.7,130.3 541.4,139.9 542.1,149.2 542.9,158.3 543.6,167.1 544.3,175.6 545.1,183.7 545.8,191.5 546.5,198.9 547.3,205.8 548.0,212.4 548.7,218.5 549.5,224.3 550.2,229.6 550.9,234.5 551.6,239.0 552.4,243.1 553.1,246.8 553.8,250.1 554.6,253.1 555.3,255.8 556.0,258.1 556.8,260.1 557.5,261.7 558.2,263.1 559.0,264.2 559.7,265.0 560.4,265.5 561.2,265.7 561.9,265.6 562.6,265.3 563.4,264.7 564.1,263.8 564.8,262.7 565.6,261.3 566.3,259.6 567.0,257.7 567.8,255.5 568.5,253.0 569.2,250.2 570.0,247.1 570.7,243.7 571.4,240.0 572.2,235.9 572.9,231.6 573.6,226.8 574.4,221.8 575.1,216.3 575.8,210.5 576.6,204.3 577.3,197.7 578.0,190.6 578.8,183.1 579.5,175.2 580.2,166.9 580.9,158.1 581.7,148.8 582.4,139.2 583.1,129.2 583.9,118.7 584.6,108.0 585.3,97.0 586.1,99.1 586.8,110.5 587.5,122.0 588.3,133.5 589.0,144.9 589.7,156.2 590.5,167.2 591.2,178.0 591.9,188.4 592.7,198.4 593.4,208.0 594.1,217.3 594.9,226.1 595.6,234.4 596.3,242.4 597.1,250.0 597.8,257.2 598.5,264.2 599.3,270.8 600.0,277.1 600.7,283.2 601.5,289.1 602.2,294.9 602.9,300.5 603.7,306.0 604.4,311.5 605.1,307.1 605.9,301.7 606.6,296.3 607.3,290.8 608.1,285.2 608.8,279.5 609.5,273.6 610.2,267.6 611.0,261.4 611.7,255.0 612.4,248.3 613.2,241.4 613.9,234.1 614.6,226.5 615.4,218.6 616.1,210.3 616.8,201.6 617.6,192.5 618.3,183.0 619.0,173.0 619.8,162.6 620.5,151.7 621.2,140.4 622.0,128.7 622.7,116.7 623.4,104.3 624.2,93.1 624.9,106.0 625.6,118.9 626.4,131.8 627.1,144.7 627.8,157.4 628.6,169.9 629.3,182.1 630.0,193.9 630.8,205.4 631.5,216.4 632.2,227.0 633.0,237.2 633.7,247.0 634.4,256.4 635.2,265.5 635.9,274.3 636.6,282.8 637.4,291.1 638.1,299.3 638.8,307.4 639.5,308.7 640.3,300.7 641.0,292.7 641.7,284.6 642.5,276.4 643.2,268.1 643.9,259.6 644.7,250.8 645.4,241.8 646.1,232.5 646.9,222.8 647.6,212.8 648.3,202.4 649.1,191.5 649.8,180.3 650.5,168.6 651.3,156.5"/>
<polyline class="line s2" points="66.0,95.0 66.7,95.5 67.5,97.1 68.2,99.9 68.9,103.8 69.7,109.0 70.4,115.3 71.1,122.6 71.9,131.0 72.6,139.9 73.3,148.8 74.1,157.5 74.8,165.7 75.5,173.4 76.3,180.6 77.0,187.2 77.7,193.4 78.5,199.0 79.2,204.3 79.9,209.1 80.7,213.6 81.4,217.8 82.1,221.7 82.8,225.4 83.6,228.9 84.3,232.3 85.0,235.7 85.8,239.0 86.5,242.2 87.2,245.5 88.0,248.8 88.7,252.0 89.4,255.2 90.2,258.4 90.9,261.4 91.6,264.4 92.4,267.3 93.1,270.1 93.8,272.8 94.6,275.4 95.3,277.9 96.0,280.2 96.8,282.5 97.5,284.7 98.2,286.7 99.0,288.7 99.7,290.5 100.4,292.3 101.2,293.9 101.9,295.5 102.6,297.0 103.4,298.4 104.1,299.8 104.8,301.0 105.6,302.2 106.3,303.3 107.0,304.4 107.8,305.4 108.5,306.3 109.2,307.2 109.9,308.0 110.7,308.8 111.4,309.5 112.1,310.2 112.9,310.8 113.6,311.4 114.3,312.0 115.1,311.5 115.8,311.0 116.5,310.6 117.3,310.2 118.0,309.8 118.7,309.4 119.5,309.1 120.2,308.8 120.9,308.5 121.7,308.2 122.4,308.0 123.1,307.8 123.9,307.6 124.6,307.4 125.3,307.2 126.1,307.1 126.8,306.9 127.5,306.8 128.3,306.7 129.0,306.6 129.7,306.5 130.5,306.5 131.2,306.4 131.9,306.4 132.7,306.3 133.4,306.3 134.1,306.3 134.9,306.3 135.6,306.2 136.3,306.2 137.1,306.3 137.8,306.3 138.5,306.3 139.2,306.3 140.0,306.3 140.7,306.4 141.4,306.4 142.2,306.5 142.9,306.5 143.6,306.5 144.4,306.6 145.1,306.7 145.8,306.7 146.6,306.8 147.3,306.8 148.0,306.9 148.8,307.0 149.5,307.0 150.2,307.1 151.0,307.2 151.7,307.2 152.4,307.3 153.2,307.4 153.9,307.4 154.6,307.5 155.4,307.6 156.1,307.7 156.8,307.7 157.6,307.8 158.3,307.9 159.0,308.0 159.8,308.0 160.5,308.1 161.2,308.2 162.0,308.3 162.7,308.3 163.4,308.4 164.2,308.5 164.9,308.5 165.6,308.6 166.4,308.7 167.1,308.8 167.8,308.8 168.6,308.9 169.3,309.0 170.0,309.0 170.7,309.1 171.5,309.2 172.2,309.2 172.9,309.3 173.7,309.3 174.4,309.4 175.1,309.5 175.9,309.5 176.6,309.6 177.3,309.6 178.1,309.7 178.8,309.8 179.5,309.8 180.3,309.9 181.0,309.9 181.7,310.0 182.5,310.0 183.2,310.1 183.9,310.1 184.7,310.2 185.4,310.2 186.1,310.3 186.9,310.3 187.6,310.4 188.3,310.4 189.1,310.5 189.8,310.5 190.5,310.5 191.3,310.6 192.0,310.6 192.7,310.7 193.5,310.7 194.2,310.7 194.9,310.8 195.7,310.8 196.4,310.8 197.1,310.9 197.8,310.9 198.6,310.9 199.3,311.0 200.0,311.0 200.8,311.0 201.5,311.1 202.2,311.1 203.0,311.1 203.7,311.2 204.4,311.2 205.2,311.2 205.9,311.2 206.6,311.3 207.4,311.3 208.1,311.3 208.8,311.3 209.6,311.4 210.3,311.4 211.0,311.4 211.8,311.4 212.5,311.4 213.2,311.5 214.0,311.5 214.7,311.5 215.4,311.5 216.2,311.5 216.9,311.6 217.6,311.6 218.4,311.6 219.1,311.6 219.8,311.6 220.6,311.6 221.3,311.7 222.0,311.7 222.8,311.7 223.5,311.7 224.2,311.7 225.0,311.7 225.7,311.7 226.4,311.7 227.2,311.8 227.9,311.8 228.6,311.8 229.3,311.8 230.1,311.8 230.8,311.8 231.5,311.8 232.3,311.8 233.0,311.8 233.7,311.9 234.5,311.9 235.2,311.9 235.9,311.9 236.7,311.9 237.4,311.9 238.1,311.9 238.9,311.9 239.6,311.9 240.3,311.9 241.1,311.9 241.8,311.9 242.5,311.9 243.3,312.0 244.0,312.0 244.7,312.0 245.5,312.0 246.2,312.0 246.9,312.0 247.7,312.0 248.4,312.0 249.1,312.0 249.9,312.0 250.6,312.0 251.3,312.0 252.1,312.0 252.8,312.0 253.5,312.0 254.3,312.0 255.0,312.0 255.7,312.0 256.5,312.0 257.2,312.0 257.9,312.0 258.6,312.0 259.4,312.0 260.1,312.0 260.8,311.9 261.6,311.9 262.3,311.9 263.0,311.9 263.8,311.9 264.5,311.9 265.2,311.9 266.0,311.9 266.7,311.9 267.4,311.9 268.2,311.9 268.9,311.9 269.6,311.9 270.4,311.9 271.1,311.9 271.8,311.9 272.6,311.9 273.3,311.9 274.0,311.9 274.8,311.9 275.5,311.9 276.2,311.9 277.0,311.9 277.7,311.9 278.4,311.9 279.2,311.9 279.9,311.9 280.6,311.9 281.4,311.9 282.1,311.9 282.8,311.9 283.6,311.9 284.3,311.9 285.0,311.9 285.8,311.9 286.5,311.9 287.2,311.9 287.9,311.9 288.7,311.9 289.4,311.9 290.1,311.9 290.9,311.9 291.6,311.9 292.3,311.9 293.1,311.9 293.8,311.9 294.5,311.9 295.3,311.9 296.0,311.9 296.7,311.9 297.5,311.9 298.2,311.9 298.9,311.9 299.7,311.9 300.4,311.9 301.1,311.9 301.9,311.9 302.6,311.9 303.3,311.9 304.1,311.9 304.8,311.9 305.5,311.9 306.3,311.9 307.0,311.9 307.7,311.9 308.5,311.9 309.2,311.9 309.9,311.9 310.7,311.9 311.4,311.9 312.1,311.9 312.9,311.9 313.6,311.9 314.3,311.9 315.0,311.9 315.8,311.9 316.5,311.9 317.2,311.9 318.0,311.9 318.7,311.9 319.4,311.9 320.2,311.9 320.9,311.9 321.6,311.9 322.4,311.9 323.1,311.9 323.8,311.9 324.6,311.9 325.3,311.9 326.0,311.9 326.8,311.9 327.5,311.9 328.2,311.9 329.0,311.9 329.7,311.9 330.4,311.9 331.2,311.9 331.9,311.9 332.6,311.9 333.4,311.9 334.1,311.9 334.8,311.9 335.6,311.9 336.3,311.9 337.0,311.9 337.8,311.9 338.5,311.9 339.2,311.9 340.0,311.9 340.7,311.9 341.4,311.9 342.2,311.9 342.9,311.9 343.6,312.0 344.3,312.0 345.1,312.0 345.8,312.0 346.5,312.0 347.3,312.0 348.0,312.0 348.7,312.0 349.5,312.0 350.2,312.0 350.9,312.0 351.7,312.0 352.4,312.0 353.1,312.0 353.9,312.0 354.6,312.0 355.3,312.0 356.1,312.0 356.8,312.0 357.5,312.0 358.3,312.0 359.0,312.0 359.7,312.0 360.5,312.0 361.2,312.0 361.9,312.0 362.7,312.0 363.4,312.0 364.1,312.0 364.9,312.0 365.6,312.0 366.3,312.0 367.1,312.0 367.8,312.0 368.5,312.0 369.3,312.0 370.0,312.0 370.7,312.0 371.5,312.0 372.2,312.0 372.9,312.0 373.7,312.0 374.4,312.0 375.1,312.0 375.8,312.0 376.6,312.0 377.3,312.0 378.0,312.0 378.8,312.0 379.5,312.0 380.2,312.0 381.0,312.0 381.7,312.0 382.4,312.0 383.2,312.0 383.9,312.0 384.6,312.0 385.4,312.0 386.1,312.0 386.8,312.0 387.6,312.0 388.3,312.0 389.0,312.0 389.8,312.0 390.5,312.0 391.2,312.0 392.0,312.0 392.7,312.0 393.4,312.0 394.2,312.0 394.9,312.0 395.6,312.0 396.4,312.0 397.1,312.0 397.8,312.0 398.6,312.0 399.3,312.0 400.0,312.0 400.8,312.0 401.5,312.0 402.2,312.0 402.9,312.0 403.7,312.0 404.4,312.0 405.1,312.0 405.9,312.0 406.6,312.0 407.3,312.0 408.1,312.0 408.8,312.0 409.5,312.0 410.3,312.0 411.0,312.0 411.7,312.0 412.5,312.0 413.2,312.0 413.9,312.0 414.7,312.0 415.4,312.0 416.1,312.0 416.9,312.0 417.6,312.0 418.3,312.0 419.1,312.0 419.8,312.0 420.5,312.0 421.3,312.0 422.0,312.0 422.7,312.0 423.5,312.0 424.2,312.0 424.9,312.0 425.7,312.0 426.4,312.0 427.1,312.0 427.9,312.0 428.6,312.0 429.3,312.0 430.1,312.0 430.8,312.0 431.5,312.0 432.2,312.0 433.0,312.0 433.7,312.0 434.4,312.0 435.2,312.0 435.9,312.0 436.6,312.0 437.4,312.0 438.1,312.0 438.8,312.0 439.6,312.0 440.3,312.0 441.0,312.0 441.8,312.0 442.5,312.0 443.2,312.0 444.0,312.0 444.7,312.0 445.4,312.0 446.2,312.0 446.9,312.0 447.6,312.0 448.4,312.0 449.1,312.0 449.8,312.0 450.6,312.0 451.3,312.0 452.0,312.0 452.8,312.0 453.5,312.0 454.2,312.0 455.0,312.0 455.7,312.0 456.4,312.0 457.2,312.0 457.9,312.0 458.6,312.0 459.4,312.0 460.1,312.0 460.8,312.0 461.6,312.0 462.3,312.0 463.0,312.0 463.7,312.0 464.5,312.0 465.2,312.0 465.9,312.0 466.7,312.0 467.4,312.0 468.1,312.0 468.9,312.0 469.6,312.0 470.3,312.0 471.1,312.0 471.8,312.0 472.5,312.0 473.3,312.0 474.0,312.0 474.7,312.0 475.5,312.0 476.2,312.0 476.9,312.0 477.7,312.0 478.4,312.0 479.1,312.0 479.9,312.0 480.6,312.0 481.3,312.0 482.1,312.0 482.8,312.0 483.5,312.0 484.3,312.0 485.0,312.0 485.7,312.0 486.5,312.0 487.2,312.0 487.9,312.0 488.7,312.0 489.4,312.0 490.1,312.0 490.8,312.0 491.6,312.0 492.3,312.0 493.0,312.0 493.8,312.0 494.5,312.0 495.2,312.0 496.0,312.0 496.7,312.0 497.4,312.0 498.2,312.0 498.9,312.0 499.6,312.0 500.4,312.0 501.1,312.0 501.8,312.0 502.6,312.0 503.3,312.0 504.0,312.0 504.8,312.0 505.5,312.0 506.2,312.0 507.0,312.0 507.7,312.0 508.4,312.0 509.2,312.0 509.9,312.0 510.6,312.0 511.4,312.0 512.1,312.0 512.8,312.0 513.6,312.0 514.3,312.0 515.0,312.0 515.8,312.0 516.5,312.0 517.2,312.0 518.0,312.0 518.7,312.0 519.4,312.0 520.2,312.0 520.9,312.0 521.6,312.0 522.3,312.0 523.1,312.0 523.8,312.0 524.5,312.0 525.3,312.0 526.0,312.0 526.7,312.0 527.5,312.0 528.2,312.0 528.9,312.0 529.7,312.0 530.4,312.0 531.1,312.0 531.9,312.0 532.6,312.0 533.3,312.0 534.1,312.0 534.8,312.0 535.5,312.0 536.3,312.0 537.0,312.0 537.7,312.0 538.5,312.0 539.2,312.0 539.9,312.0 540.7,312.0 541.4,312.0 542.1,312.0 542.9,312.0 543.6,312.0 544.3,312.0 545.1,312.0 545.8,312.0 546.5,312.0 547.3,312.0 548.0,312.0 548.7,312.0 549.5,312.0 550.2,312.0 550.9,312.0 551.6,312.0 552.4,312.0 553.1,312.0 553.8,312.0 554.6,312.0 555.3,312.0 556.0,312.0 556.8,312.0 557.5,312.0 558.2,312.0 559.0,312.0 559.7,312.0 560.4,312.0 561.2,312.0 561.9,312.0 562.6,312.0 563.4,312.0 564.1,312.0 564.8,312.0 565.6,312.0 566.3,312.0 567.0,312.0 567.8,312.0 568.5,312.0 569.2,312.0 570.0,312.0 570.7,312.0 571.4,312.0 572.2,312.0 572.9,312.0 573.6,312.0 574.4,312.0 575.1,312.0 575.8,312.0 576.6,312.0 577.3,312.0 578.0,312.0 578.8,312.0 579.5,312.0 580.2,312.0 580.9,312.0 581.7,312.0 582.4,312.0 583.1,312.0 583.9,312.0 584.6,312.0 585.3,312.0 586.1,312.0 586.8,312.0 587.5,312.0 588.3,312.0 589.0,312.0 589.7,312.0 590.5,312.0 591.2,312.0 591.9,312.0 592.7,312.0 593.4,312.0 594.1,312.0 594.9,312.0 595.6,312.0 596.3,312.0 597.1,312.0 597.8,312.0 598.5,312.0 599.3,312.0 600.0,312.0 600.7,312.0 601.5,312.0 602.2,312.0 602.9,312.0 603.7,312.0 604.4,312.0 605.1,312.0 605.9,312.0 606.6,312.0 607.3,312.0 608.1,312.0 608.8,312.0 609.5,312.0 610.2,312.0 611.0,312.0 611.7,312.0 612.4,312.0 613.2,312.0 613.9,312.0 614.6,312.0 615.4,312.0 616.1,312.0 616.8,312.0 617.6,312.0 618.3,312.0 619.0,312.0 619.8,312.0 620.5,312.0 621.2,312.0 622.0,312.0 622.7,312.0 623.4,312.0 624.2,312.0 624.9,312.0 625.6,312.0 626.4,312.0 627.1,312.0 627.8,312.0 628.6,312.0 629.3,312.0 630.0,312.0 630.8,312.0 631.5,312.0 632.2,312.0 633.0,312.0 633.7,312.0 634.4,312.0 635.2,312.0 635.9,312.0 636.6,312.0 637.4,312.0 638.1,312.0 638.8,312.0 639.5,312.0 640.3,312.0 641.0,312.0 641.7,312.0 642.5,312.0 643.2,312.0 643.9,312.0 644.7,312.0 645.4,312.0 646.1,312.0 646.9,312.0 647.6,312.0 648.3,312.0 649.1,312.0 649.8,312.0 650.5,312.0 651.3,312.0"/>
<polyline class="line s3" points="66.0,95.0 66.7,95.7 67.5,97.5 68.2,100.6 68.9,104.9 69.7,110.3 70.4,116.9 71.1,124.5 71.9,133.0 72.6,142.4 73.3,152.2 74.1,161.8 74.8,170.8 75.5,179.2 76.3,186.9 77.0,194.0 77.7,200.6 78.5,206.7 79.2,212.5 79.9,218.0 80.7,223.5 81.4,228.9 82.1,234.4 82.8,240.1 83.6,246.1 84.3,252.5 85.0,259.4 85.8,267.0 86.5,275.1 87.2,283.1 88.0,290.1 88.7,295.7 89.4,300.0 90.2,303.1 90.9,305.2 91.6,306.6 92.4,307.6 93.1,308.2 93.8,308.5 94.6,308.8 95.3,308.9 96.0,308.9 96.8,308.9 97.5,309.0 98.2,309.0 99.0,309.0 99.7,309.0 100.4,309.0 101.2,309.0 101.9,309.0 102.6,309.1 103.4,309.1 104.1,309.1 104.8,309.2 105.6,309.2 106.3,309.3 107.0,309.3 107.8,309.3 108.5,309.4 109.2,309.4 109.9,309.5 110.7,309.5 111.4,309.6 112.1,309.6 112.9,309.6 113.6,309.7 114.3,309.7 115.1,309.8 115.8,309.8 116.5,309.9 117.3,309.9 118.0,309.9 118.7,310.0 119.5,310.0 120.2,310.1 120.9,310.1 121.7,310.1 122.4,310.2 123.1,310.2 123.9,310.3 124.6,310.3 125.3,310.3 126.1,310.4 126.8,310.4 127.5,310.5 128.3,310.5 129.0,310.5 129.7,310.6 130.5,310.6 131.2,310.6 131.9,310.7 132.7,310.7 133.4,310.7 134.1,310.8 134.9,310.8 135.6,310.9 136.3,310.9 137.1,310.9 137.8,311.0 138.5,311.0 139.2,311.0 140.0,311.1 140.7,311.1 141.4,311.1 142.2,311.2 142.9,311.2 143.6,311.2 144.4,311.3 145.1,311.3 145.8,311.3 146.6,311.3 147.3,311.4 148.0,311.4 148.8,311.4 149.5,311.5 150.2,311.5 151.0,311.5 151.7,311.6 152.4,311.6 153.2,311.6 153.9,311.6 154.6,311.7 155.4,311.7 156.1,311.7 156.8,311.7 157.6,311.8 158.3,311.8 159.0,311.8 159.8,311.8 160.5,311.9 161.2,311.9 162.0,311.9 162.7,311.9 163.4,312.0 164.2,312.0 164.9,312.0 165.6,312.0 166.4,311.9 167.1,311.9 167.8,311.9 168.6,311.9 169.3,311.9 170.0,311.8 170.7,311.8 171.5,311.8 172.2,311.8 172.9,311.8 173.7,311.7 174.4,311.7 175.1,311.7 175.9,311.7 176.6,311.7 177.3,311.7 178.1,311.6 178.8,311.6 179.5,311.6 180.3,311.6 181.0,311.6 181.7,311.6 182.5,311.5 183.2,311.5 183.9,311.5 184.7,311.5 185.4,311.5 186.1,311.5 186.9,311.5 187.6,311.4 188.3,311.4 189.1,311.4 189.8,311.4 190.5,311.4 191.3,311.4 192.0,311.4 192.7,311.4 193.5,311.4 194.2,311.3 194.9,311.3 195.7,311.3 196.4,311.3 197.1,311.3 197.8,311.3 198.6,311.3 199.3,311.3 200.0,311.3 200.8,311.3 201.5,311.2 202.2,311.2 203.0,311.2 203.7,311.2 204.4,311.2 205.2,311.2 205.9,311.2 206.6,311.2 207.4,311.2 208.1,311.2 208.8,311.2 209.6,311.2 210.3,311.2 211.0,311.2 211.8,311.2 212.5,311.2 213.2,311.2 214.0,311.2 214.7,311.1 215.4,311.1 216.2,311.1 216.9,311.1 217.6,311.1 218.4,311.1 219.1,311.1 219.8,311.1 220.6,311.1 221.3,311.1 222.0,311.1 222.8,311.1 223.5,311.1 224.2,311.1 225.0,311.1 225.7,311.1 226.4,311.1 227.2,311.1 227.9,311.1 228.6,311.1 229.3,311.1 230.1,311.1 230.8,311.1 231.5,311.1 232.3,311.1 233.0,311.1 233.7,311.1 234.5,311.1 235.2,311.1 235.9,311.1 236.7,311.1 237.4,311.1 238.1,311.1 238.9,311.1 239.6,311.1 240.3,311.1 241.1,311.1 241.8,311.1 242.5,311.1 243.3,311.1 244.0,311.1 244.7,311.1 245.5,311.1 246.2,311.2 246.9,311.2 247.7,311.2 248.4,311.2 249.1,311.2 249.9,311.2 250.6,311.2 251.3,311.2 252.1,311.2 252.8,311.2 253.5,311.2 254.3,311.2 255.0,311.2 255.7,311.2 256.5,311.2 257.2,311.2 257.9,311.2 258.6,311.2 259.4,311.2 260.1,311.2 260.8,311.2 261.6,311.2 262.3,311.2 263.0,311.2 263.8,311.3 264.5,311.3 265.2,311.3 266.0,311.3 266.7,311.3 267.4,311.3 268.2,311.3 268.9,311.3 269.6,311.3 270.4,311.3 271.1,311.3 271.8,311.3 272.6,311.3 273.3,311.3 274.0,311.3 274.8,311.3 275.5,311.3 276.2,311.3 277.0,311.4 277.7,311.4 278.4,311.4 279.2,311.4 279.9,311.4 280.6,311.4 281.4,311.4 282.1,311.4 282.8,311.4 283.6,311.4 284.3,311.4 285.0,311.4 285.8,311.4 286.5,311.4 287.2,311.4 287.9,311.4 288.7,311.5 289.4,311.5 290.1,311.5 290.9,311.5 291.6,311.5 292.3,311.5 293.1,311.5 293.8,311.5 294.5,311.5 295.3,311.5 296.0,311.5 296.7,311.5 297.5,311.5 298.2,311.5 298.9,311.5 299.7,311.6 300.4,311.6 301.1,311.6 301.9,311.6 302.6,311.6 303.3,311.6 304.1,311.6 304.8,311.6 305.5,311.6 306.3,311.6 307.0,311.6 307.7,311.6 308.5,311.6 309.2,311.6 309.9,311.6 310.7,311.6 311.4,311.7 312.1,311.7 312.9,311.7 313.6,311.7 314.3,311.7 315.0,311.7 315.8,311.7 316.5,311.7 317.2,311.7 318.0,311.7 318.7,311.7 319.4,311.7 320.2,311.7 320.9,311.7 321.6,311.7 322.4,311.7 323.1,311.7 323.8,311.8 324.6,311.8 325.3,311.8 326.0,311.8 326.8,311.8 327.5,311.8 328.2,311.8 329.0,311.8 329.7,311.8 330.4,311.8 331.2,311.8 331.9,311.8 332.6,311.8 333.4,311.8 334.1,311.8 334.8,311.8 335.6,311.8 336.3,311.8 337.0,311.8 337.8,311.9 338.5,311.9 339.2,311.9 340.0,311.9 340.7,311.9 341.4,311.9 342.2,311.9 342.9,311.9 343.6,311.9 344.3,311.9 345.1,311.9 345.8,311.9 346.5,311.9 347.3,311.9 348.0,311.9 348.7,311.9 349.5,311.9 350.2,311.9 350.9,311.9 351.7,311.9 352.4,311.9 353.1,311.9 353.9,312.0 354.6,312.0 355.3,312.0 356.1,312.0 356.8,312.0 357.5,312.0 358.3,312.0 359.0,312.0 359.7,312.0 360.5,312.0 361.2,312.0 361.9,312.0 362.7,312.0 363.4,312.0 364.1,312.0 364.9,312.0 365.6,312.0 366.3,312.0 367.1,312.0 367.8,312.0 368.5,312.0 369.3,312.0 370.0,312.0 370.7,312.0 371.5,312.0 372.2,312.0 372.9,312.0 373.7,312.0 374.4,312.0 375.1,312.0 375.8,311.9 376.6,311.9 377.3,311.9 378.0,311.9 378.8,311.9 379.5,311.9 380.2,311.9 381.0,311.9 381.7,311.9 382.4,311.9 383.2,311.9 383.9,311.9 384.6,311.9 385.4,311.9 386.1,311.9 386.8,311.9 387.6,311.9 388.3,311.9 389.0,311.9 389.8,311.9 390.5,311.9 391.2,311.9 392.0,311.9 392.7,311.9 393.4,311.9 394.2,311.9 394.9,311.9 395.6,311.9 396.4,311.9 397.1,311.9 397.8,311.9 398.6,311.9 399.3,311.9 400.0,311.9 400.8,311.9 401.5,311.9 402.2,311.9 402.9,311.9 403.7,311.9 404.4,311.9 405.1,311.9 405.9,311.9 406.6,311.9 407.3,311.9 408.1,311.9 408.8,311.9 409.5,311.9 410.3,311.9 411.0,311.9 411.7,311.9 412.5,311.9 413.2,311.9 413.9,311.9 414.7,311.9 415.4,311.9 416.1,311.9 416.9,311.9 417.6,311.9 418.3,311.9 419.1,311.9 419.8,311.9 420.5,311.9 421.3,311.9 422.0,311.9 422.7,311.9 423.5,311.9 424.2,311.9 424.9,311.9 425.7,311.9 426.4,311.9 427.1,311.9 427.9,311.9 428.6,311.9 429.3,311.9 430.1,311.9 430.8,311.9 431.5,311.9 432.2,311.9 433.0,311.9 433.7,311.9 434.4,311.9 435.2,311.9 435.9,311.9 436.6,311.9 437.4,311.9 438.1,311.9 438.8,311.9 439.6,311.9 440.3,311.9 441.0,311.9 441.8,311.9 442.5,311.9 443.2,311.9 444.0,311.9 444.7,311.9 445.4,311.9 446.2,311.9 446.9,311.9 447.6,311.9 448.4,311.9 449.1,311.9 449.8,311.9 450.6,311.9 451.3,311.9 452.0,311.9 452.8,311.9 453.5,311.9 454.2,311.9 455.0,311.9 455.7,311.9 456.4,311.9 457.2,311.9 457.9,311.9 458.6,311.9 459.4,311.9 460.1,311.9 460.8,311.9 461.6,311.9 462.3,311.9 463.0,311.9 463.7,311.9 464.5,311.9 465.2,311.9 465.9,311.9 466.7,311.9 467.4,311.9 468.1,311.9 468.9,311.9 469.6,311.9 470.3,311.9 471.1,311.9 471.8,311.9 472.5,311.9 473.3,311.9 474.0,311.9 474.7,311.9 475.5,311.9 476.2,311.9 476.9,311.9 477.7,311.9 478.4,311.9 479.1,311.9 479.9,311.9 480.6,311.9 481.3,311.9 482.1,311.9 482.8,311.9 483.5,311.9 484.3,311.9 485.0,311.9 485.7,311.9 486.5,311.9 487.2,311.9 487.9,311.9 488.7,311.9 489.4,311.9 490.1,311.9 490.8,311.9 491.6,311.9 492.3,311.9 493.0,311.9 493.8,311.9 494.5,311.9 495.2,311.9 496.0,311.9 496.7,311.9 497.4,311.9 498.2,311.9 498.9,311.9 499.6,311.9 500.4,311.9 501.1,311.9 501.8,311.9 502.6,311.9 503.3,311.9 504.0,311.9 504.8,311.9 505.5,311.9 506.2,311.9 507.0,311.9 507.7,311.9 508.4,311.9 509.2,311.9 509.9,311.9 510.6,311.9 511.4,311.9 512.1,311.9 512.8,312.0 513.6,312.0 514.3,312.0 515.0,312.0 515.8,312.0 516.5,312.0 517.2,312.0 518.0,312.0 518.7,312.0 519.4,312.0 520.2,312.0 520.9,312.0 521.6,312.0 522.3,312.0 523.1,312.0 523.8,312.0 524.5,312.0 525.3,312.0 526.0,312.0 526.7,312.0 527.5,312.0 528.2,312.0 528.9,312.0 529.7,312.0 530.4,312.0 531.1,312.0 531.9,312.0 532.6,312.0 533.3,312.0 534.1,312.0 534.8,312.0 535.5,312.0 536.3,312.0 537.0,312.0 537.7,312.0 538.5,312.0 539.2,312.0 539.9,312.0 540.7,312.0 541.4,312.0 542.1,312.0 542.9,312.0 543.6,312.0 544.3,312.0 545.1,312.0 545.8,312.0 546.5,312.0 547.3,312.0 548.0,312.0 548.7,312.0 549.5,312.0 550.2,312.0 550.9,312.0 551.6,312.0 552.4,312.0 553.1,312.0 553.8,312.0 554.6,312.0 555.3,312.0 556.0,312.0 556.8,312.0 557.5,312.0 558.2,312.0 559.0,312.0 559.7,312.0 560.4,312.0 561.2,312.0 561.9,312.0 562.6,312.0 563.4,312.0 564.1,312.0 564.8,312.0 565.6,312.0 566.3,312.0 567.0,312.0 567.8,312.0 568.5,312.0 569.2,312.0 570.0,312.0 570.7,312.0 571.4,312.0 572.2,312.0 572.9,312.0 573.6,312.0 574.4,312.0 575.1,312.0 575.8,312.0 576.6,312.0 577.3,312.0 578.0,312.0 578.8,312.0 579.5,312.0 580.2,312.0 580.9,312.0 581.7,312.0 582.4,312.0 583.1,312.0 583.9,312.0 584.6,312.0 585.3,312.0 586.1,312.0 586.8,312.0 587.5,312.0 588.3,312.0 589.0,312.0 589.7,312.0 590.5,312.0 591.2,312.0 591.9,312.0 592.7,312.0 593.4,312.0 594.1,312.0 594.9,312.0 595.6,312.0 596.3,312.0 597.1,312.0 597.8,312.0 598.5,312.0 599.3,312.0 600.0,312.0 600.7,312.0 601.5,312.0 602.2,312.0 602.9,312.0 603.7,312.0 604.4,312.0 605.1,312.0 605.9,312.0 606.6,312.0 607.3,312.0 608.1,312.0 608.8,312.0 609.5,312.0 610.2,312.0 611.0,312.0 611.7,312.0 612.4,312.0 613.2,312.0 613.9,312.0 614.6,312.0 615.4,312.0 616.1,312.0 616.8,312.0 617.6,312.0 618.3,312.0 619.0,312.0 619.8,312.0 620.5,312.0 621.2,312.0 622.0,312.0 622.7,312.0 623.4,312.0 624.2,312.0 624.9,312.0 625.6,312.0 626.4,312.0 627.1,312.0 627.8,312.0 628.6,312.0 629.3,312.0 630.0,312.0 630.8,312.0 631.5,312.0 632.2,312.0 633.0,312.0 633.7,312.0 634.4,312.0 635.2,312.0 635.9,312.0 636.6,312.0 637.4,312.0 638.1,312.0 638.8,312.0 639.5,312.0 640.3,312.0 641.0,312.0 641.7,312.0 642.5,312.0 643.2,312.0 643.9,312.0 644.7,312.0 645.4,312.0 646.1,312.0 646.9,312.0 647.6,312.0 648.3,312.0 649.1,312.0 649.8,312.0 650.5,312.0 651.3,312.0"/>
<text class="direct s1" x="658.0" y="147.5">iteration 0</text>
<text class="direct s3" x="658.0" y="303.0">iteration 820</text>
<text class="direct s2" x="658.0" y="316.0">iteration 120</text>
<text class="axis-title ax-y" x="14" y="190" transform="rotate(-90 14 190)">degrees from upright</text>
<text class="axis-title ax-x" x="359" y="348">time (s)</text>
<rect class="s1" x="26" y="363" width="10" height="10" rx="2.5"/>
<text class="lg" x="41" y="372">iteration 0</text>
<rect class="s2" x="140.0" y="363" width="10" height="10" rx="2.5"/>
<text class="lg" x="155.0" y="372">iteration 120</text>
<rect class="s3" x="268.0" y="363" width="10" height="10" rx="2.5"/>
<text class="lg" x="283.0" y="372">iteration 820</text>
</g></svg>